<svg xmlns="http://www.w3.org/2000/svg" width="36.209" height="36.209" viewBox="0 0 36.209 36.209"><defs><style>.a{fill:#3b5998;}.b{fill:#fff;}</style></defs><path class="a" d="M36.209,33.946a2.264,2.264,0,0,1-2.263,2.263H2.263A2.264,2.264,0,0,1,0,33.946V2.263A2.264,2.264,0,0,1,2.263,0H33.946a2.264,2.264,0,0,1,2.263,2.263Z" transform="translate(0)"/><path class="b" d="M23.184,35.551V21.973H27.71l1.132-5.658H23.184V14.052q0-3.395,3.395-3.395h2.263V5H24.315c-4.158,0-6.789,3.26-6.789,7.921v3.395H13v5.658h4.526V35.551Z" transform="translate(1.71 0.658)"/></svg>