<svg xmlns="http://www.w3.org/2000/svg" xmlns:xlink="http://www.w3.org/1999/xlink" width="36.209" height="36.209" viewBox="0 0 36.209 36.209"><defs><style>.a{fill:none;}.b{fill-rule:evenodd;fill:url(#a);}</style><radialGradient id="a" cx="0.149" cy="1.003" r="1.278" gradientUnits="objectBoundingBox"><stop offset="0" stop-color="#ffb140"/><stop offset="0.256" stop-color="#ff5445"/><stop offset="0.599" stop-color="#fc2b82"/><stop offset="1" stop-color="#8e40b7"/></radialGradient></defs><g transform="translate(0)"><g transform="translate(0 0)"><rect class="a" width="36.209" height="36.209" transform="translate(0 0)"/><path class="b" d="M29.941,8.44a2.173,2.173,0,1,1-2.173-2.173A2.173,2.173,0,0,1,29.941,8.44ZM18.1,24.139A6.035,6.035,0,1,1,24.139,18.1,6.035,6.035,0,0,1,18.1,24.139Zm0-15.332a9.3,9.3,0,1,0,9.3,9.3A9.3,9.3,0,0,0,18.1,8.808Zm0-5.545c4.834,0,5.407.018,7.316.106a10.015,10.015,0,0,1,3.362.623,5.61,5.61,0,0,1,2.082,1.354,5.606,5.606,0,0,1,1.354,2.082,10.022,10.022,0,0,1,.623,3.362c.087,1.909.106,2.482.106,7.316s-.018,5.407-.106,7.316a10.015,10.015,0,0,1-.623,3.362,6,6,0,0,1-3.436,3.436,10.022,10.022,0,0,1-3.362.623c-1.909.087-2.481.106-7.316.106s-5.407-.018-7.316-.106a10.015,10.015,0,0,1-3.362-.623,5.61,5.61,0,0,1-2.082-1.354,5.609,5.609,0,0,1-1.354-2.082,10.022,10.022,0,0,1-.623-3.362c-.087-1.909-.106-2.482-.106-7.316s.018-5.407.106-7.316a10.015,10.015,0,0,1,.623-3.362A5.61,5.61,0,0,1,5.345,5.346,5.606,5.606,0,0,1,7.427,3.991a10.022,10.022,0,0,1,3.362-.623C12.7,3.281,13.27,3.262,18.1,3.262ZM18.1,0c-4.917,0-5.533.021-7.464.109A13.288,13.288,0,0,0,6.245.95,8.872,8.872,0,0,0,3.039,3.039,8.872,8.872,0,0,0,.95,6.245,13.29,13.29,0,0,0,.109,10.64C.021,12.571,0,13.188,0,18.1s.021,5.533.109,7.464A13.29,13.29,0,0,0,.95,29.963,8.871,8.871,0,0,0,3.039,33.17a8.875,8.875,0,0,0,3.207,2.088,13.29,13.29,0,0,0,4.395.842c1.931.088,2.548.109,7.464.109s5.533-.021,7.464-.109a13.29,13.29,0,0,0,4.395-.842,9.258,9.258,0,0,0,5.295-5.295,13.29,13.29,0,0,0,.842-4.395c.088-1.931.109-2.548.109-7.464s-.021-5.533-.109-7.464a13.29,13.29,0,0,0-.842-4.395A8.875,8.875,0,0,0,33.17,3.039,8.875,8.875,0,0,0,29.963.95,13.29,13.29,0,0,0,25.569.109C23.638.021,23.021,0,18.1,0Z" transform="translate(0 0)"/></g></g></svg>