<svg xmlns="http://www.w3.org/2000/svg" width="37.464" height="37.464" viewBox="0 0 37.464 37.464"><defs><style>.a{fill:#25d366;}.b{fill:#fff;}</style></defs><g transform="translate(0 0)"><path class="a" d="M31.732,13A18.736,18.736,0,0,0,16.06,42l-2.413,8.173,8.487-2.352A18.733,18.733,0,1,0,31.732,13Z" transform="translate(-13 -13)"/><path class="b" d="M143.126,149.168a.676.676,0,0,0-.395-.56c-1.516-.691-3.041-1.381-4.557-2.072a.43.43,0,0,0-.5.107l-2.058,2.3a.566.566,0,0,1-.642.153,14.643,14.643,0,0,1-7.3-6.523,3.581,3.581,0,0,0,1.416-1.834.027.027,0,0,1,.008-.015,3.086,3.086,0,0,0-.07-2.026,21.543,21.543,0,0,0-1.547-3.5c-.054-.054-.116-.107-.116-.107a1.372,1.372,0,0,0-.851-.338c-.108-.008-.224-.008-.348-.008a6.524,6.524,0,0,0-.905.023,2.338,2.338,0,0,0-1.439.9,6.055,6.055,0,0,0-1.083,1.949c-.023.077-.046.146-.07.223a5.447,5.447,0,0,0,.124,3.33,18.061,18.061,0,0,0,1.656,3.469,19.239,19.239,0,0,0,3.737,4.374,17.853,17.853,0,0,0,4.619,3.269,16.129,16.129,0,0,0,5.021,1.45,5.582,5.582,0,0,0,2.453-.338,5.191,5.191,0,0,0,1.207-.645A3.852,3.852,0,0,0,143.1,150.2v-.023A4.553,4.553,0,0,0,143.126,149.168Z" transform="translate(-114.065 -125.311)"/></g></svg>